<?xml version="1.0" encoding="UTF-8" standalone="no"?>
<!DOCTYPE svg PUBLIC "-//W3C//DTD SVG 1.1//EN" "http://www.w3.org/Graphics/SVG/1.1/DTD/svg11.dtd">
<svg width="100%" height="100%" viewBox="0 0 488 720" version="1.1" xmlns="http://www.w3.org/2000/svg" xmlns:xlink="http://www.w3.org/1999/xlink" xml:space="preserve" xmlns:serif="http://www.serif.com/" style="fill-rule:evenodd;clip-rule:evenodd;stroke-linejoin:round;stroke-miterlimit:2;">
    <g id="Layer_2">
        <g id="Layer_1-2">
            <g id="Page-1">
                <g id="_2.1">
                    <g id="Group">
                        <g id="Logo">
                            <g id="Fill-3">
                                <rect x="12.02" y="95.93" width="463.12" height="51.63" style="fill:white;fill-rule:nonzero;"/>
                            </g>
                            <g id="Stroke-4">
                                <path d="M487.16,159.59L0,159.59L0,83.91L487.16,83.91L487.16,159.59ZM24,135.55L463.12,135.55L463.12,108L24,108L24,135.55Z" style="fill-rule:nonzero;"/>
                            </g>
                            <g id="Fill-6">
                                <path d="M385.4,12.02L98.55,12.02L64.9,89.47L419.06,89.47L385.4,12.02Z" style="fill:white;fill-rule:nonzero;"/>
                            </g>
                            <g id="Group-11">
                                <g id="Stroke-7">
                                    <path d="M437.38,101.49L46.58,101.49L90.67,0L393.28,0L437.38,101.49ZM83.23,77.49L400.73,77.49L377.52,24L106.44,24L83.23,77.49Z" style="fill:rgb(5,5,5);fill-rule:nonzero;"/>
                                </g>
                                <g id="Stroke-9">
                                    <path d="M376.45,719.51L109.11,719.51L17.18,135.51L242.78,136.66L468.38,135.51L376.45,719.51ZM129.66,695.51L355.9,695.51L440.24,159.69L242.72,160.69L45.32,159.69L129.66,695.51Z" style="fill-rule:nonzero;"/>
                                </g>
                            </g>
                            <g id="Fill-12">
                                <path d="M460.72,305.7L23.24,305.7L62.73,528.38L241.98,526.44L421.23,528.38L460.72,305.7Z" style="fill:white;fill-rule:nonzero;"/>
                            </g>
                            <g id="Stroke-13">
                                <path d="M431.28,540.51L241.85,538.51L52.68,540.51L8.9,293.68L475.06,293.68L431.28,540.51ZM241.85,514.42L411.17,516.26L446.38,317.72L37.57,317.72L72.79,516.26L241.85,514.42Z" style="fill-rule:nonzero;"/>
                            </g>
                        </g>
                    </g>
                </g>
            </g>
        </g>
    </g>
</svg>
